<svg id="Layer_1" data-name="Layer 1" xmlns="http://www.w3.org/2000/svg" xmlns:xlink="http://www.w3.org/1999/xlink" viewBox="0 0 93.73 93.88"><defs><style>.cls-1{fill:none;}.cls-2{clip-path:url(#clip-path);}.cls-3{fill:#fff;}.cls-4{fill:#0b2553;}.cls-5{clip-path:url(#clip-path-2);}.cls-6{fill:#f7d694;}.cls-7{fill:#5ca3ea;}.cls-8{fill:#164e87;}</style><clipPath id="clip-path"><path class="cls-1" d="M46.87,2.09a44.85,44.85,0,1,0,45,44.85A44.92,44.92,0,0,0,46.87,2.09Zm42,60.51a42,42,0,0,1-3.53,7.34c-.12.2-.27.39-.4.59a35.42,35.42,0,0,1-4.07,5.58A44.52,44.52,0,0,1,61.34,89.27a43.61,43.61,0,0,1-10.49,2.18A44.87,44.87,0,0,1,31.76,89a44.28,44.28,0,0,1-12-6.52,4.79,4.79,0,0,1-.47-.43,30.63,30.63,0,0,1-4.4-3.88A44.08,44.08,0,0,1,3.13,56.36a5.32,5.32,0,0,1-.22-1.42,11.89,11.89,0,0,1-.4-2.36,29.17,29.17,0,0,1-.28-4.85A46.41,46.41,0,0,1,8.78,46a44.56,44.56,0,0,1,11.59-.48,84.25,84.25,0,0,1,17.35,3.66c4.89,1.47,9.74,3.09,14.65,4.51a103.13,103.13,0,0,0,14.1,3.11c2.11.29,4.23.46,6.35.57a60,60,0,0,0,8.79-.23,61.23,61.23,0,0,0,8.51-1.44c.21-.06.42-.09.63-.13A14.8,14.8,0,0,1,90,58.79,23.31,23.31,0,0,1,88.83,62.6Z"/></clipPath><clipPath id="clip-path-2"><circle class="cls-1" cx="46.81" cy="46.94" r="44.37"/></clipPath></defs><g class="cls-2"><ellipse class="cls-3" cx="46.94" cy="46.86" rx="44.91" ry="44.77"/></g><path class="cls-4" d="M46.87,0A46.94,46.94,0,1,0,93.73,47,46.91,46.91,0,0,0,46.87,0Zm0,91.25A44.31,44.31,0,1,1,91.18,46.94,44.31,44.31,0,0,1,46.87,91.25Z"/><g class="cls-5"><path class="cls-6" d="M95.46,44.35c-1.54,1-3.07,2.1-4.62,3.13a72.63,72.63,0,0,1-11.68,6.3,57.51,57.51,0,0,1-9.48,3.06A49.23,49.23,0,0,1,60,58a60,60,0,0,1-9.83-.62,93.86,93.86,0,0,1-15.78-3.86c-3.92-1.26-7.82-2.62-11.73-3.91A95.12,95.12,0,0,0,8.14,45.79a35,35,0,0,0-6.2-.57A18.75,18.75,0,0,1,1.4,42a52.52,52.52,0,0,1-.55-6.77A41.94,41.94,0,0,1,7.78,32.3a37.31,37.31,0,0,1,12.39-1.51c6.39.26,12.6,1.91,18.77,3.88,5.32,1.71,10.6,3.63,15.93,5.26a85.47,85.47,0,0,0,15.26,3.34,60,60,0,0,0,6.84.35,50.47,50.47,0,0,0,9.4-1,51.82,51.82,0,0,0,9-2.63c.22-.09.45-.15.67-.22A26.26,26.26,0,0,1,95.46,44.35Z"/><path class="cls-7" d="M6.51,68.32c1.56.08,3.1.45,4.67.45,1,0,1.91.26,2.89.29a70.06,70.06,0,0,0,9.6-.31,107.6,107.6,0,0,0,14.2-2.53Q42.91,65,48,63.75a139.35,139.35,0,0,1,15.8-3.26,61.91,61.91,0,0,1,6.9-.57c1.46,0,2.93.08,4.39.17,3.23.17,14.58-7.47,17.74-6.79,1.3.27-5.69,9.52-4.43,10.09a12.19,12.19,0,0,0,1.15.42,65.7,65.7,0,0,1-6.32,9.28Q71.24,88,56.18,92.41a37,37,0,0,1-13.35,1.34A40.87,40.87,0,0,1,20.1,84.37,59.79,59.79,0,0,1,7,69.23C6.82,69,6.67,68.63,6.51,68.32Z"/><path class="cls-8" d="M19.27,81.34c-1.83-1.49-7.68-3.74-9.25-5.63C3.08,67.37,2.61,57.7.13,45.9a10.17,10.17,0,0,1-.31-2,35.5,35.5,0,0,1,6.33.59,99.77,99.77,0,0,1,14.9,3.93c4,1.33,8,2.72,12,4a97.5,97.5,0,0,0,16.14,4,61.69,61.69,0,0,0,10.06.66A49.8,49.8,0,0,0,69.1,55.9a58.16,58.16,0,0,0,9.68-3.08A73.62,73.62,0,0,0,90.7,46.46c1.57-1,3.13-2.1,4.7-3.16a43.46,43.46,0,0,1-1.07,5.5,72.39,72.39,0,0,1-3.45,10.68c-.13.3-.27.58-.41.87-.35,0-.7,0-1.06-.06A18,18,0,0,0,85.9,60a65.35,65.35,0,0,0-8.48.69c-1.28.26-2.56.49-3.82.81-2,.51-3.95,1.21-5.9,1.9C63.21,65,58.86,67.1,54.49,69.14q-4.18,2-8.37,4A113.49,113.49,0,0,1,34.18,78a73.27,73.27,0,0,1-8.26,2.27c-.85.19-1.71.19-2.54.4C22,81,20.63,81.07,19.27,81.34Z"/></g></svg>